<svg xmlns="http://www.w3.org/2000/svg" viewBox="0 0 1440 320"><path fill="#f3f4f5" fill-opacity="1" d="M0,160L7.5,181.3C15,203,30,245,45,266.7C60,288,75,288,90,256C105,224,120,160,135,165.3C150,171,165,245,180,261.3C195,277,210,235,225,224C240,213,255,235,270,234.7C285,235,300,213,315,170.7C330,128,345,64,360,69.3C375,75,390,149,405,160C420,171,435,117,450,128C465,139,480,213,495,229.3C510,245,525,203,540,160C555,117,570,75,585,64C600,53,615,75,630,117.3C645,160,660,224,675,240C690,256,705,224,720,197.3C735,171,750,149,765,133.3C780,117,795,107,810,133.3C825,160,840,224,855,234.7C870,245,885,203,900,165.3C915,128,930,96,945,101.3C960,107,975,149,990,181.3C1005,213,1020,235,1035,218.7C1050,203,1065,149,1080,128C1095,107,1110,117,1125,138.7C1140,160,1155,192,1170,218.7C1185,245,1200,267,1215,266.7C1230,267,1245,245,1260,218.7C1275,192,1290,160,1305,165.3C1320,171,1335,213,1350,234.7C1365,256,1380,256,1395,234.7C1410,213,1425,171,1433,149.3L1440,128L1440,320L1432.5,320C1425,320,1410,320,1395,320C1380,320,1365,320,1350,320C1335,320,1320,320,1305,320C1290,320,1275,320,1260,320C1245,320,1230,320,1215,320C1200,320,1185,320,1170,320C1155,320,1140,320,1125,320C1110,320,1095,320,1080,320C1065,320,1050,320,1035,320C1020,320,1005,320,990,320C975,320,960,320,945,320C930,320,915,320,900,320C885,320,870,320,855,320C840,320,825,320,810,320C795,320,780,320,765,320C750,320,735,320,720,320C705,320,690,320,675,320C660,320,645,320,630,320C615,320,600,320,585,320C570,320,555,320,540,320C525,320,510,320,495,320C480,320,465,320,450,320C435,320,420,320,405,320C390,320,375,320,360,320C345,320,330,320,315,320C300,320,285,320,270,320C255,320,240,320,225,320C210,320,195,320,180,320C165,320,150,320,135,320C120,320,105,320,90,320C75,320,60,320,45,320C30,320,15,320,8,320L0,320Z"></path></svg>