<svg xmlns="http://www.w3.org/2000/svg" viewBox="0 0 1440 320"><path fill="#a2d9ff" fill-opacity="7.88" d="M0,224L18.5,213.3C36.9,203,74,181,111,144C147.7,107,185,53,222,74.7C258.5,96,295,192,332,218.7C369.2,245,406,203,443,192C480,181,517,203,554,186.7C590.8,171,628,117,665,117.3C701.5,117,738,171,775,160C812.3,149,849,75,886,85.3C923.1,96,960,192,997,229.3C1033.8,267,1071,245,1108,234.7C1144.6,224,1182,224,1218,192C1255.4,160,1292,96,1329,69.3C1366.2,43,1403,53,1422,58.7L1440,64L1440,320L1421.5,320C1403.1,320,1366,320,1329,320C1292.3,320,1255,320,1218,320C1181.5,320,1145,320,1108,320C1070.8,320,1034,320,997,320C960,320,923,320,886,320C849.2,320,812,320,775,320C738.5,320,702,320,665,320C627.7,320,591,320,554,320C516.9,320,480,320,443,320C406.2,320,369,320,332,320C295.4,320,258,320,222,320C184.6,320,148,320,111,320C73.8,320,37,320,18,320L0,320Z"></path></svg>